<svg width="620" height="177" viewBox="0 0 620 177" fill="none" xmlns="http://www.w3.org/2000/svg">
<line x1="297.276" y1="51.041" x2="335.232" y2="136.895" stroke="#FF650F" stroke-width="8" stroke-linecap="round"/>
<path d="M19.275 145C16.125 145 14.55 143.425 14.55 140.275V51.4C14.55 48.25 16.125 46.675 19.275 46.675C20.925 46.675 22.525 47.6 24.075 49.45L86.55 129.775H84.3V51.4C84.3 48.25 85.875 46.675 89.025 46.675C92.175 46.675 93.75 48.25 93.75 51.4V140.275C93.75 143.425 92.175 145 89.025 145C87.325 145 85.725 144.075 84.225 142.225L21.75 61.9H24V140.275C24 143.425 22.425 145 19.275 145ZM152.277 145C141.227 145 133.127 142.425 127.977 137.275C122.827 132.125 120.252 124.025 120.252 112.975V78.625C120.252 67.475 122.827 59.35 127.977 54.25C133.177 49.1 141.252 46.575 152.202 46.675H170.277C181.377 46.675 189.477 49.25 194.577 54.4C199.727 59.5 202.302 67.6 202.302 78.7V112.975C202.302 124.025 199.727 132.125 194.577 137.275C189.477 142.425 181.377 145 170.277 145H152.277ZM152.277 135.55H170.277C175.927 135.55 180.377 134.85 183.627 133.45C186.927 132 189.277 129.625 190.677 126.325C192.127 123.025 192.852 118.575 192.852 112.975V78.7C192.852 73.1 192.127 68.65 190.677 65.35C189.277 62.05 186.927 59.7 183.627 58.3C180.377 56.85 175.927 56.125 170.277 56.125H152.202C146.602 56.075 142.152 56.75 138.852 58.15C135.602 59.55 133.252 61.9 131.802 65.2C130.402 68.5 129.702 72.975 129.702 78.625V112.975C129.702 118.575 130.402 123.025 131.802 126.325C133.252 129.625 135.627 132 138.927 133.45C142.227 134.85 146.677 135.55 152.277 135.55ZM257.277 145C255.277 145 253.777 143.85 252.777 141.55L214.452 53.425C213.802 51.875 213.752 50.55 214.302 49.45C214.852 48.35 215.852 47.575 217.302 47.125C220.052 46.075 221.977 46.925 223.077 49.675L259.752 133.975H256.452L292.677 49.675C293.777 46.975 295.702 46.125 298.452 47.125C299.902 47.575 300.902 48.35 301.452 49.45C302.002 50.55 301.952 51.875 301.302 53.425L262.827 141.55C261.827 143.85 260.227 145 258.027 145H257.277ZM378.264 145C369.014 145 362.064 143.075 357.414 139.225C352.764 135.375 350.114 129.275 349.464 120.925C349.364 119.325 349.714 118.1 350.514 117.25C351.314 116.4 352.489 115.975 354.039 115.975C356.989 115.975 358.614 117.55 358.914 120.7C359.364 126.35 361.039 130.25 363.939 132.4C366.889 134.5 371.664 135.55 378.264 135.55H386.514C391.514 135.55 395.439 134.95 398.289 133.75C401.139 132.55 403.139 130.55 404.289 127.75C405.489 124.9 406.089 120.975 406.089 115.975V51.4C406.089 48.25 407.664 46.675 410.814 46.675C413.964 46.675 415.539 48.25 415.539 51.4V115.975C415.539 126.075 413.214 133.45 408.564 138.1C403.964 142.7 396.614 145 386.514 145H378.264ZM448.621 145C445.471 145 443.896 143.425 443.896 140.275V51.4C443.896 48.25 445.471 46.675 448.621 46.675H504.046C507.196 46.675 508.771 48.25 508.771 51.4C508.771 54.55 507.196 56.125 504.046 56.125H453.346V90.55H486.346C489.496 90.55 491.071 92.125 491.071 95.275C491.071 98.425 489.496 100 486.346 100H453.346V135.55H504.046C507.196 135.55 508.771 137.125 508.771 140.275C508.771 143.425 507.196 145 504.046 145H448.621ZM534.9 145C531.75 145 530.175 143.425 530.175 140.275V51.4C530.175 48.25 531.75 46.675 534.9 46.675H571.05C583.7 46.675 592.95 49.6 598.8 55.45C604.65 61.3 607.575 70.55 607.575 83.2V108.475C607.575 121.075 604.65 130.325 598.8 136.225C593 142.075 583.75 145 571.05 145H534.9ZM539.625 135.55H571.05C577.75 135.55 583.075 134.7 587.025 133C590.975 131.25 593.8 128.4 595.5 124.45C597.25 120.45 598.125 115.125 598.125 108.475V83.2C598.125 76.55 597.25 71.25 595.5 67.3C593.8 63.3 590.975 60.45 587.025 58.75C583.075 57 577.75 56.125 571.05 56.125H539.625V135.55Z" fill="#454545"/>
</svg>
